<svg width="25" height="28" viewBox="0 0 25 28" fill="none" xmlns="http://www.w3.org/2000/svg">
<path fill-rule="evenodd" clip-rule="evenodd" d="M17.7952 9.06652C18.0797 8.75732 18.4609 8.58623 18.8565 8.5901C19.2521 8.59397 19.6305 8.77248 19.9103 9.0872C20.19 9.40192 20.3487 9.82765 20.3521 10.2727C20.3556 10.7178 20.2035 11.1465 19.9287 11.4667L13.8934 18.2564C13.6104 18.5746 13.2267 18.7534 12.8266 18.7534C12.4265 18.7534 12.0428 18.5746 11.7599 18.2564L5.72457 11.4667C5.44973 11.1465 5.29764 10.7178 5.30108 10.2727C5.30452 9.82765 5.4632 9.40192 5.74295 9.0872C6.0227 8.77248 6.40113 8.59397 6.79674 8.5901C7.19235 8.58623 7.57348 8.75732 7.85805 9.06652L12.8266 14.6562L17.7952 9.06652Z" fill="#007AFF"/>
</svg>
